<svg width="24" height="24" viewBox="0 0 24 24" xmlns="http://www.w3.org/2000/svg">
  <path d="M4 6.25C4 4.45508 5.45508 3 7.25 3H16.75C18.5449 3 20 4.45508 20 6.25V13.75C20 15.5449 18.5449 17 16.75 17H10.9492L7.85352 20.0957C7.35742 20.5918 6.5 20.2402 6.5 19.5391V17H7.5V18.9219L10.2324 16.1895C10.3262 16.0957 10.4531 16.043 10.5859 16.043H16.75C17.9922 16.043 19 15.0352 19 13.793V6.25C19 5.00781 17.9922 4 16.75 4H7.25C6.00781 4 5 5.00781 5 6.25V13.793C5 15.0352 6.00781 16.043 7.25 16.043V17C5.45508 17 4 15.5449 4 13.75V6.25Z"/>
  <path d="M8.5 9.5C8.5 9.22386 8.72386 9 9 9H15C15.2761 9 15.5 9.22386 15.5 9.5C15.5 9.77614 15.2761 10 15 10H9C8.72386 10 8.5 9.77614 8.5 9.5Z"/>
  <path d="M8.5 12.5C8.5 12.2239 8.72386 12 9 12H13C13.2761 12 13.5 12.2239 13.5 12.5C13.5 12.7761 13.2761 13 13 13H9C8.72386 13 8.5 12.7761 8.5 12.5Z"/>
</svg>
